<svg xmlns="http://www.w3.org/2000/svg" viewBox="0 0 40 40" width="100px" height="100px"><path fill="#f5ce85" d="M13.047,38.5c-0.092,0-0.178-0.034-0.242-0.095L2.59,28.584c-0.07-0.067-0.103-0.162-0.086-0.253 L5.854,9.919C5.872,9.817,5.945,9.733,6.05,9.691l20.776-8.166C26.868,1.509,26.912,1.5,26.957,1.5c0.091,0,0.18,0.034,0.243,0.095 l10.21,9.816c0.116,0.111,0.122,0.277,0.015,0.396L13.304,38.39C13.24,38.46,13.147,38.5,13.047,38.5L13.047,38.5z"/><path fill="#967a44" d="M26.924,2.023l9.989,9.603L13.04,37.937L3.018,28.301l3.307-18.181L26.924,2.023 M26.957,1 c-0.106,0-0.213,0.019-0.315,0.06L5.867,9.227C5.602,9.331,5.411,9.558,5.362,9.829L2.012,28.241 c-0.047,0.257,0.04,0.519,0.231,0.703l10.216,9.821C12.622,38.922,12.835,39,13.047,39c0.231,0,0.462-0.092,0.627-0.274 l24.12-26.584c0.288-0.317,0.271-0.794-0.039-1.091l-10.21-9.816C27.387,1.081,27.174,1,26.957,1L26.957,1z"/><path fill="#fff3de" d="M14,33l-4.486,1.547l-3.291-3.164l1.57-1.23l1.942-3.787l4.806-2.913l3.738-5.826l3.253-2.427 l2.719-4.369l3.641-1.845l2.384-3.739l3.462,3.329L33,11l-4.865,4.734l-4.175,6.748l-6.069,4.661L14,33z"/><path fill="#ffe1a9" d="M3.018,28.301l3.307-18.181l20.599-8.097L3.018,28.301z"/><path fill="none" stroke="#967a44" stroke-linecap="round" stroke-linejoin="round" stroke-miterlimit="10" d="M26.931 2.019L3.295 28.282"/><path fill="none" stroke="#c74343" stroke-linecap="round" stroke-linejoin="round" stroke-miterlimit="10" d="M5.5,31.5 c3.904-0.893,2.17-4.258,5.77-6.011c6.13-2.985,5.146-6.904,7.836-8.476c5.384-3.145,2.787-5.327,6.983-6.983 C29.36,8.739,30.078,5.418,30.5,4.5"/><path fill="#bae0bd" stroke="#5e9c76" stroke-linecap="round" stroke-miterlimit="10" d="M8.5,34.5 c3.519-0.635,6.033-0.853,7.662-4.621c2.547-5.895,7.265-5.203,8.879-9.17c3.493-8.588,9.817-7.78,8.459-13.209"/><path fill="#967a44" d="M12.507 10A0.5 0.5 0 1 0 12.507 11A0.5 0.5 0 1 0 12.507 10Z" transform="rotate(-89.891 12.507 10.5)"/><path fill="#967a44" d="M16.507 8A0.5 0.5 0 1 0 16.507 9A0.5 0.5 0 1 0 16.507 8Z" transform="rotate(-89.891 16.507 8.5)"/><path fill="#967a44" d="M11.507 14A0.5 0.5 0 1 0 11.507 15A0.5 0.5 0 1 0 11.507 14Z" transform="rotate(-89.891 11.507 14.5)"/><path fill="#967a44" d="M8.507 13A0.5 0.5 0 1 0 8.507 14A0.5 0.5 0 1 0 8.507 13Z" transform="rotate(-89.891 8.507 13.5)"/><g><path fill="#967a44" d="M7.507 18A0.5 0.5 0 1 0 7.507 19A0.5 0.5 0 1 0 7.507 18Z" transform="rotate(-89.891 7.507 18.5)"/></g></svg>